<svg width="200" height="27" xmlns="http://www.w3.org/2000/svg"><path d="M20.242 10.114c0-5.55-4.498-10.061-10.062-10.061A10.053 10.053 0 00.118 10.114c0 5.261 4.051 9.628 9.286 10.036-.447-.54-1-1.276-1.486-1.96-.816-1.157-1.802-2.88-1.828-4.616-.027-1.29.263-1.987 1.96-4.657.657-1.039 1.104-2.827 1.038-3.209-.065-.381.619.579.882 1.237.329.855.276 1.499-.342 3.275-.29.841-.79 2.196-.29 2.788-.052-.066 1.592-1.762 1.986-3.512.29-1.341.171-3.13-.407-4.445-.5-1.158-1.118-2.105-.987-3.63.04-.448.119-.882.237-1.303.197.526.42 1.04.684 1.54.684 1.288 2.091 3.182 2.762 4.471.67 1.29 1.184 3.42.408 5.603-.763 2.13-1.487 2.854-2.25 4.59a25.064 25.064 0 00-1.301 3.854c5.432-.145 9.772-4.603 9.772-10.062zm10.216 15.692H200v1.2H30.458zm3.133-20.553v4.398h5.5v2.707h-5.5v7.17h-3.283V2.468h9.113V5.24l-5.83.013zm18.372 8.517h-7.768c-.026 2.35 1.134 3.486 3.455 3.486a8.9 8.9 0 003.654-.779l.303 2.496a12.432 12.432 0 01-4.497.806c-3.983 0-6.212-1.994-6.212-6.418 0-3.842 2.123-6.668 5.882-6.668 3.666 0 5.275 2.495 5.275 5.612a9.01 9.01 0 01-.092 1.465zm-5.275-4.7c-1.332 0-2.269.99-2.453 2.508h4.616c.052-1.57-.805-2.508-2.163-2.508zm15.641 10.484c0-.713.053-1.413.158-2.126h-.052c-.66 1.387-2.045 2.377-3.957 2.377-3.046 0-4.563-2.298-4.563-5.89 0-4.238 2.48-7.17 6.634-7.17a10.8 10.8 0 011.595.106V3.563a24.506 24.506 0 00-2.189-.25v-2.02a36.87 36.87 0 015.394-.225v15.99a24.21 24.21 0 002.203.251v2.02a36.232 36.232 0 01-5.223.225zm-.198-10.062a7.283 7.283 0 00-1.688-.198c-1.846 0-3.152 1.162-3.152 4.265 0 2.35.686 3.565 2.15 3.565 1.688 0 2.703-1.967 2.703-4.12l-.013-3.512zm17.58 4.278h-7.768c-.026 2.35 1.135 3.486 3.456 3.486a8.9 8.9 0 003.653-.779l.303 2.496a12.432 12.432 0 01-4.497.806c-3.983 0-6.212-1.994-6.212-6.418 0-3.842 2.124-6.668 5.882-6.668 3.667 0 5.276 2.495 5.276 5.612a7.82 7.82 0 01-.093 1.465zm-5.275-4.7c-1.332 0-2.268.99-2.453 2.508H76.6c.066-1.57-.791-2.508-2.163-2.508zm11.711.422h.053c.607-1.598 1.82-2.984 3.983-2.8l-.158 3.183c-2.321-.475-3.482 1.03-3.482 4.516v5.137h-3.205V9.453a24.269 24.269 0 00-2.202-.251V7.168a36.305 36.305 0 015.222-.224c.014.858-.065 1.716-.21 2.548zm12.398 10.062c-.014-.713.04-1.44.131-2.152l-.026-.027c-.607 1.413-2.15 2.404-4.01 2.404-2.268 0-3.586-1.295-3.586-3.315 0-3.01 2.98-4.595 7.24-4.595v-.687c0-1.32-.633-1.994-2.453-1.994a8.092 8.092 0 00-3.706.99l-.277-2.706a13.37 13.37 0 014.497-.78c4.036 0 5.17 1.612 5.17 4.371v5.995a24.21 24.21 0 002.203.251v2.02a35.84 35.84 0 01-5.183.225zm-.251-5.585c-3.403 0-4.168.99-4.168 1.993 0 .806.554 1.334 1.49 1.334 1.583 0 2.678-1.518 2.678-3.037v-.29zm10.762 5.559h-3.231V3.563a24.506 24.506 0 00-2.19-.25v-2.02a37.23 37.23 0 015.42-.225v18.46zm13.65-5.758h-7.768c-.027 2.35 1.134 3.486 3.455 3.486a9.008 9.008 0 003.667-.779l.303 2.496a12.432 12.432 0 01-4.497.806c-3.983 0-6.212-1.994-6.212-6.418 0-3.842 2.123-6.668 5.882-6.668 3.653 0 5.275 2.495 5.275 5.612 0 .488-.026.977-.105 1.465zm-5.276-4.7c-1.332 0-2.268.99-2.453 2.508h4.616c.066-1.57-.791-2.508-2.163-2.508zm18.003 4.49c-.37 0-.739-.014-1.108-.054v6.022h-3.284V2.468a80.964 80.964 0 014.563-.106c4.194 0 6.489 1.94 6.489 5.281 0 3.315-2.52 5.916-6.66 5.916zm.052-8.505c-.408 0-.778 0-1.16.027v5.678a5.8 5.8 0 00.963.079c2.017-.026 3.402-1.136 3.402-2.984 0-1.717-.989-2.8-3.205-2.8zm13.598 14.724c-3.561 0-5.856-1.85-5.856-6.312 0-3.922 2.598-6.748 6.41-6.748 3.56 0 5.855 1.968 5.855 6.286 0 3.948-2.65 6.774-6.41 6.774zm.33-10.326c-1.438 0-2.85 1.109-2.85 3.684s.937 3.895 2.797 3.895c1.582 0 2.796-1.294 2.796-3.843 0-2.43-.858-3.736-2.744-3.736zm12.04 10.075h-3.23V3.563a24.269 24.269 0 00-2.203-.25v-2.02a37.23 37.23 0 015.42-.225v18.46h.013zm7.518 0h-3.205V9.453a24.269 24.269 0 00-2.202-.251V7.168a36.87 36.87 0 015.394-.224l.013 12.584zm-1.622-14.169a1.949 1.949 0 01-1.952-1.954 1.96 1.96 0 011.952-1.968c1.108 0 2.018.859 2.018 1.941a1.994 1.994 0 01-2.018 1.981zm9.31 14.42c-2.769 0-3.64-1.004-3.64-3.949V9.466h-2.162V6.97h2.15V3.101l3.23-.858V6.97h3.06v2.496h-3.06v5.506c0 1.611.383 2.073 1.491 2.073a6.32 6.32 0 001.57-.198v2.601a11.16 11.16 0 01-2.638.33zm9.285-.251h-3.204V9.453a24.506 24.506 0 00-2.19-.251V7.168a36.87 36.87 0 015.394-.224v12.584zm-1.609-14.169a1.949 1.949 0 01-1.951-1.954 1.96 1.96 0 011.951-1.968c1.108 0 2.018.859 2.018 1.941a2.002 2.002 0 01-2.018 1.981zm15.273 8.411h-7.768c-.027 2.35 1.134 3.486 3.455 3.486a8.9 8.9 0 003.653-.779l.304 2.496a12.432 12.432 0 01-4.498.806c-3.983 0-6.211-1.994-6.211-6.418 0-3.842 2.123-6.668 5.882-6.668 3.666 0 5.275 2.495 5.275 5.612 0 .488-.026.977-.092 1.465zm-5.276-4.7c-1.345 0-2.268.99-2.453 2.508h4.616c.053-1.57-.804-2.508-2.163-2.508z" fill="currentColor"/></svg>