<svg width="125" height="37" xmlns="http://www.w3.org/2000/svg"><path d="M31.672 17.77v10.605a.726.726 0 01-.726.726h-4.404a.726.726 0 01-.726-.726v-9.43c0-3.088-1.719-3.986-3.282-3.986-2.462 0-3.71 1.642-3.71 4.073v9.343a.728.728 0 01-.728.726h-4.41a.728.728 0 01-.728-.726v-9.43c0-3.088-1.72-3.986-3.28-3.986-2.617 0-3.712 2.105-3.712 4.355v9.072c0 .4-.325.725-.726.725H.83a.726.726 0 01-.726-.725V10.683a.726.726 0 01.725-.73h4.394c.353 0 .548.235.587.587l.156 2.422c1.21-1.989 3.158-3.423 5.9-3.423a6.48 6.48 0 015.82 3.477c1.368-2.032 3.633-3.477 6.635-3.477 4.266 0 7.351 3.11 7.351 8.232zm3.5-7.817h4.407a.728.728 0 01.728.728v17.69a.728.728 0 01-.728.726h-4.407a.726.726 0 01-.725-.726V10.685a.726.726 0 01.725-.732zm26.621 7.817v10.607c0 .4-.324.724-.723.724h-4.413a.724.724 0 01-.724-.724v-9.433c0-3.087-1.719-3.985-3.282-3.985-2.617 0-3.712 2.028-3.712 4.031v9.387c0 .4-.324.724-.724.724h-4.412a.724.724 0 01-.724-.724V10.681a.726.726 0 01.724-.728h4.394c.352 0 .547.235.587.587l.153 2.426c1.213-1.993 3.166-3.427 5.901-3.427 3.868 0 6.955 3.11 6.955 8.232zm16.837 5.662c0 3.906-3.985 6.057-7.539 6.057-3.317 0-5.978-1.603-7.344-3.204a.593.593 0 010-.782l1.719-2.486c.234-.274.545-.195.897 0 1.759 1.095 3.28 1.603 4.531 1.603.9 0 2.032-.208 2.032-1.244 0-2.58-8.829-1.369-8.829-7.816 0-3.867 3.318-6.013 6.76-6.013 2.617 0 5.118 1.016 6.718 2.89a.603.603 0 01-.039.83l-1.758 2.285c-.235.313-.506.207-.859-.037-1.485-.86-2.306-1.33-3.477-1.33-1.172 0-1.72.664-1.72 1.33 0 2.687 8.909.85 8.909 7.917zm39.15 3.031a3.372 3.372 0 116.744.05 3.372 3.372 0 01-6.744-.05zM99.61 29.1h-5.62a.75.75 0 01-.705-.35l-5.068-6.708-1.97 2.136v4.205a.715.715 0 01-.717.718h-4.425a.717.717 0 01-.718-.718V1.3c0-.396.321-.717.718-.717h4.425a.715.715 0 01.717.717v14.98l5.506-6.014a.78.78 0 01.663-.313h6.061c.506 0 .664.353.311.703L92.11 17.85l7.853 10.558c.232.38.116.693-.352.693zM34.007 3.5a3.372 3.372 0 116.743.038 3.372 3.372 0 01-6.743-.038zm86.712 7.123l-10.12 25.433a.713.713 0 01-.702.468h-4.736c-.43 0-.703-.234-.47-.663l2.697-6.511-7.465-18.727c-.158-.431.039-.666.468-.666h4.886a.72.72 0 01.705.47l4.296 11.798 4.299-11.799a.715.715 0 01.703-.473h4.976c.428 0 .618.239.463.67z" fill="#FFF"/></svg>