<svg width="390" height="171" fill="none" xmlns="http://www.w3.org/2000/svg"><path d="M155.9 25.6c-14.4-11.7-30.8-12.4-47.2-5.8-13.8 5.6-20 17.2-20.8 31.7-.6 11.1 2.3 21.4 10.9 29.1 8 7.3 17.9 9.5 28.6 9.8 10.1-.4 19.9-2.5 27.9-9.8 10.3-9.5 13.6-21.5 11.5-35.1-1.4-7.8-4.6-14.9-10.9-19.9zm-10 30.6c-.2 3.7-1.1 7.4-2.3 10.9-2.2 6.3-6.7 10.3-13.6 10.8-6.7.5-12-2.1-15.8-7.6-3.7-5.4-4.7-11.6-4.8-18-.1-5.6.9-10.9 3.8-15.8 6.3-10.4 20.4-11 27.6-1.2 4.5 6.3 5.6 13.5 5.1 20.9zM0 136.499c.2.9.7 1.6 1.2 2.1 11.4 12.9 25.9 20.7 42.1 25.5 14.8 4.3 30 5.8 45.4 6.1 18.3.3 36.6-1.5 54.7-4.1 31.8-4.6 63.1-11.8 94.4-18.9 30.3-6.9 60.7-13.7 91.2-19.9 17.2-3.5 34.7-5.4 52.3-4.9 2.6.1 5.1.3 7.7.5 0-.1 0-.3.1-.4-.4-.2-.7-.3-1.1-.5-11.5-4.3-23.6-5.9-35.7-6.2-18.2-.5-36.3 1.3-54.1 4.7-24.3 4.6-48.6 9.7-72.8 14.9-32.4 6.9-64.6 14.3-97.6 17.9-20.8 2.3-41.6 3.2-62.5 1.3-22.2-2-43.5-7.1-63.3-17.4-.8-.3-1.4-.5-2-.7z" fill="#000"/><path d="M183.501 89.799c-5.5 5.3-11.2 10.4-16.8 15.6-1.3 1.2-3 2.4-.9 4.1 7 5.7 15.4 8.7 23.5 1.9 1.5-1.2 2.9-2.5 4.3-3.8 12.3-12 21.2-26.4 28.6-41.8 6.6-13.6 11.7-27.7 14.8-42.5.7-3.5-.1-4.8-3.6-5.5-3.2-.7-6.4-1.1-9.6-1.4-7.5-.7-6.5-1.8-8.2 6.1-2.7 12-5.8 23.9-10.9 35.2-.5 1.2-1.2 2.2-2.2 4-.9-2-1.4-3.2-1.9-4.4-5.1-12-10.1-24.1-15.1-36.1-1.1-2.5-2.8-4-5.5-4.5-4.8-.8-9.5-.6-13.9 1.4-3.3 1.5-3.7 2.7-2.1 6 7.2 14.8 14.5 29.6 21.6 44.4 1.5 3.1 2.7 6.4 3.9 9.7.8 2.3.3 4.4-1.2 6.3-1.7 1.8-3.1 3.7-4.8 5.3zM73.1 39.9c4.3-3.8 7.1-8.7 7.5-14.7.7-9.9-3.3-16.5-12.6-20.4C61.3 2 54.2.8 47 1c-10.8.4-21.7 1.4-32.5 2.4-5 .4-6.1 1.9-6.1 6.9C8.3 36.1 8.2 62 8 87.8c0 1.5.4 2.2 2 2.2 6.1-.2 12.1-.3 18.2-.5 2-.1 3.1-1.1 3.1-3.1 0-1.2.1-2.3.1-3.5V20.1c0-4.4 1.2-5.9 5.5-6.9 4.7-1.1 9.3-.5 13.6 1.7 3.3 1.7 5.3 4.5 5.8 8.2 1 6.5-.8 12-6.1 15.9-3.2 2.4-6.9 4.2-10.6 5.9-3.4 1.5-4.1 2.3-2.2 5.5C44.2 62 51.7 73 60.4 83.3c8.9 10.6 22.6 7.9 30.2 3.3 2.2-1.3 2.1-2.2 0-3.5-5.7-3.4-11-7.3-14.9-12.7L61.9 51.2c-.5-.7-.9-1.5-1.6-2.6 1.1-.5 1.9-.8 2.5-1.2 3.4-2.6 7.2-4.7 10.3-7.5zm274.501 50.6c1.3-.1 3.6-.3 5.8-.5 8.4-1 16-3.9 22.2-9.8 9.8-9.5 12.9-21.2 10.9-34.4-1.2-7.9-4.4-15-10.6-20.1-14.4-11.8-30.7-12.5-47.2-5.9-13.8 5.5-20.2 17.1-20.9 31.6-.6 12.4 2.8 23.4 13.2 31.3 7.5 5.7 16.4 7.5 26.6 7.8zm-14.9-53.4c5.9-10.8 20.3-11.9 27.7-2 4.7 6.2 5.9 13.5 5.3 21.1-.3 3.8-1.1 7.6-2.4 11.1-2.2 6.2-6.7 10-13.5 10.6-6.6.6-11.9-2.1-15.7-7.5-3.9-5.4-4.8-11.7-4.9-18.2-.1-5.3.9-10.4 3.5-15.1zM282.3 29.3c4.5.2 9 1.5 13.3 2.8 5.4 1.7 8.1.8 10.4-4.3 1.7-3.8 1.5-4.8-2-6.9-1.4-.8-2.9-1.6-4.5-2.2-7.9-3-16-3.5-24.3-2.4-9.5 1.2-18.2 4.3-25.6 10.8-17.1 15-14.5 42-1.2 53.7 8.1 7.2 17.7 9.4 31.2 9.7 3-.6 9-1.6 14.9-2.9 5.8-1.3 9-5.4 10.9-10.6.3-.9.3-1.9.4-2.9-1 0-2.1-.3-3.1-.1-6.6 1.5-13.2 2.5-20 1.7-13.8-1.6-22.8-11.9-22.3-25.7.4-12.6 9.2-21.2 21.9-20.7z" fill="#000"/></svg>