<svg width="330" height="159" xmlns="http://www.w3.org/2000/svg"><path d="M73.35 134.794c-11.063 0-21.55-11.766-22.83-15.411-.511-1.407-.83-4.476-.895-5.244-.064-2.622-.447-5.435-.703-8.888-.32-5.947-5.628-12.598-7.674-16.946-.703-1.471-1.726-4.86-2.302-6.459-1.663-4.412-3.965-17.841-4.22-19.056-6.331-30.503-8.058-33.892-8.058-33.892h.128c.512 0 2.622.704 6.779 11.51 1.15 3.07 2.813 8.186 3.58 11.575.832 3.645 1.919 7.674 2.942 11.702 1.023 3.9 1.663 7.994 2.622 11.83 1.535 6.395 6.203 11.191 7.546 17.65.767 3.709 2.877 5.755 5.243 7.354 1.215.83 2.622 1.214 4.157 1.214 4.604 0 9.848-3.517 10.679-7.225.192-.704.256-2.175.192-2.814-.32-2.814-1.343-4.668-3.901-5.82-.512-.255-2.686-1.214-4.412-2.237-1.919-1.151-6.395-6.907-3.198-8.505.192-.064.384-.128.512-.128 1.535 0 3.39 2.813 5.307 2.941h.256c.768 0 1.535-.32 2.302-.575.768-.32 1.599-.576 2.494-.576.96 0 2.11.32 3.453 1.407v28.52c-2.494 0-5.307-1.215-9.656-1.215-.511 0-1.087 0-1.662.064-4.796.32-7.482 3.645-8.953 7.29-.767 1.855-1.47 6.075-1.343 6.395.256.64 10.616 6.842 21.678 6.842v8.697m-62.22-29.224c-.64 0 1.47-3.197-1.343-9.975-1.918-4.669-3.709-9.592-2.302-17.522.512-2.877 2.43-7.801 4.029-10.679 3.261-5.82 13.557-14.963 13.94-21.614.832 2.942 2.43 9.528-1.918 15.859-3.645 5.307-7.93 12.917-8.889 20.015-.511 3.773-.256 7.418-.064 10.615.256 3.901.768 10.168-2.558 12.918-.511.191-.767.383-.895.383m30.503 25.195c-6.65-8.377-29.863-11.702-17.713-47.192 4.668-13.557 3.58-18.865 3.58-18.865s6.267 4.732 1.855 24.044c-3.006 13.301.448 22.637 4.284 26.858 10.552 11.51 7.994 15.155 7.994 15.155M4.543 41.432c-.576-2.11-.704-3.965-.576-5.628.576-8.313 8.121-11.702 10.04-12.98 0 0 3.389-2.303 3.837-4.669 0 0 3.453 8.76-4.54 13.813-4.093 2.494-6.843 5.499-8.761 9.464m.959 26.154s-13.685-7.61 2.11-20.783C23.407 33.63 20.146 31.008 20.146 31.008h.064c.32 0 2.302.064 3.453 2.366.447.832 3.58 5.436-9.273 16.051-12.853 10.551-8.888 18.16-8.888 18.16m45.85-29.415c-.32 0-.576.064-.896.128-.959.32-1.598 1.215-2.174 1.79-.575.384-.831-.063-1.023.448-.831 2.75 1.855 4.54 4.285 4.54 1.982 0 3.836-1.15 3.453-3.964h-.064c-.576 0-1.343.256-2.11.575-.768.256-1.471.576-2.047.576-.575 0-.959-.256-.959-1.087 0-1.535 2.046-.704 2.75-1.215.32-.32.575-1.407.128-1.535-.32-.192-.832-.256-1.343-.256m7.418 14.26c-1.535 0-2.622-2.685-1.024-3.517-.895-2.302-4.923-1.662-8.696-2.75-5.116-1.534-6.587-8.44-8.761-8.696 2.686-.64 5.052-.895 7.098-.895 13.685 0 12.981 12.341 11.766 15.859h-.383M70.766.751L71.491.5l54.715 157.749-.725.251zm74.801 60.121V50.699h10.472v-4.216h-10.472v-6.088h10.847V36.18h-15.231v24.692h4.384zm28.87 0v-4.216H164.15V36.18h-4.384v24.692h14.67zm5.957 0l1.76-5.115h9.593l1.76 5.115h4.647l-8.637-25.067h-5.133l-8.636 25.067h4.646zm9.892-9.33h-6.689l3.354-9.705 3.335 9.705zm15.25 9.33V44.46l10.266 16.412h4.384V36.18h-4.384v16.43l-10.267-16.43h-4.383v24.692h4.383zm27.914 0c4.402 0 7.625-1.574 9.76-3.897 2.136-2.323 3.166-5.414 3.166-8.487 0-3.372-1.255-6.463-3.54-8.693-2.286-2.23-5.565-3.615-9.592-3.615h-8.187v24.692h8.393zm-.731-4.197h-3.279v-16.28h2.942c3.128 0 5.489 1.011 7.063 2.51a7.755 7.755 0 012.36 5.602c0 1.78-.524 3.822-1.93 5.414-1.423 1.592-3.69 2.754-7.156 2.754zm31.886 4.197v-4.216H254.32V50.7h10.004v-4.216H254.32v-6.088h10.285V36.18h-14.67v24.692h14.67zm22.107.374l1.948-2.922v-.206c-1.124-.394-2.436-1.368-3.578-2.51-1.143-1.125-2.136-2.436-2.642-3.56 1.255-.656 2.304-1.555 3.054-2.698s1.18-2.548 1.18-4.272c0-2.379-.674-4.121-1.78-5.451-1.105-1.33-2.585-2.192-4.234-2.717-1.648-.524-3.41-.73-5.04-.73h-7.08v24.692h4.383V53.49h2.698c.843 0 1.686-.019 2.491-.15.356.993 1.012 2.21 1.874 3.391.862 1.18 1.93 2.305 3.091 3.129 1.162.843 2.417 1.386 3.635 1.386zm-11.016-11.971h-2.773v-8.88h2.773c2.548 0 4.196.468 5.208 1.274 1.012.805 1.367 1.93 1.367 3.278 0 1.33-.355 2.398-1.367 3.148-1.012.749-2.66 1.18-5.208 1.18zm20.12 11.971c2.417 0 5.059-.618 7.082-1.855 2.023-1.236 3.447-3.09 3.447-5.62 0-.787-.13-1.517-.374-2.173-.525-1.311-1.406-2.38-2.548-3.204-1.143-.805-2.136-1.217-3.166-1.61-.506-.207-1.03-.413-1.574-.656-1.087-.45-2.192-1.012-3.016-1.65-.825-.636-1.368-1.385-1.368-2.285 0-.88.45-1.424 1.255-1.78.806-.355 2.005-.487 3.447-.487 1.649 0 3.354.17 4.497.413l.056-3.953a17.435 17.435 0 00-4.44-.581c-2.267 0-4.59.45-6.351 1.499-1.761 1.049-2.979 2.697-2.979 5.077 0 .824.131 1.573.412 2.248.525 1.349 1.443 2.38 2.567 3.166 1.124.787 2.08 1.199 3.128 1.592.525.206 1.068.412 1.612.637 1.086.45 2.154.974 2.978 1.611.806.637 1.35 1.406 1.35 2.305 0 .918-.563 1.705-1.537 2.267-.993.562-2.398.918-4.103.918-1.068 0-2.173-.132-3.185-.356-1.011-.206-1.948-.469-2.641-.75l-.056.019v4.122c1.648.73 3.578 1.086 5.507 1.086zM146.658 94.763V71.306h-2.741v23.457h2.74zm8.453 0V76.467l11.444 18.296h2.759V71.306h-2.759v18.136l-11.337-18.136h-2.865v23.457h2.758zm29.064 0l8.08-23.457h-2.847l-7.066 20.52-7.066-20.52h-2.847l8.062 23.457h3.684zm25.504 0V92.2h-11.373v-7.884h11.373v-2.563h-11.373V73.87h11.373v-2.563h-14.131v23.457h14.131zm7.28.356c4.467 0 8.364-2.367 8.364-7.03 0-2.616-1.014-3.524-2.936-4.894-1.762-1.264-5.41-2.741-6.568-3.773-.64-.57-1.014-1.21-1.014-2.367 0-2.741 2.153-3.578 4.752-3.578 1.495 0 3.008.267 4.075.48l.054-.035v-2.35c-1.282-.373-2.688-.622-4.13-.622-4.11 0-7.26 1.904-7.26 6.318 0 2.118.711 3.578 1.85 4.485.961.801 5.429 2.901 6.55 3.613 1.335.837 2.064 1.762 2.064 3.328 0 2.884-2.67 3.862-5.374 3.862-1.62 0-3.916-.409-5.162-.978l-.053.017v2.492c1.424.694 3.079 1.032 4.787 1.032zm20.77-.356V73.87h7.26v-2.563h-17.263v2.563h7.261v20.894h2.741zm13.668 0v-19.79L258.16 88h.64l6.621-12.868v19.631h2.848V71.306h-3.755l-5.998 11.818h-.071l-5.998-11.818h-3.72v23.457h2.67zm36.52 0V92.2h-11.372v-7.884h11.373v-2.563h-11.373V73.87h11.373v-2.563h-14.132v23.457h14.132zm6.497 0V76.467l11.444 18.296h2.758V71.306h-2.758v18.136L294.52 71.306h-2.866v23.457h2.759zm27.675 0V73.87h7.262v-2.563h-17.264v2.563h7.261v20.894h2.741zm-162.065 34.248l1.904-1.94-3.31-3.31c1.12-1.905 1.904-4.272 2.384-7.137l-2.384-.961h-.143c-.338 1.904-.854 4.129-1.85 6.122l-5.732-5.748c1.157-.552 2.403-1.193 3.364-2.136.961-.926 1.62-2.172 1.62-3.951 0-1.762-.659-3.026-1.655-3.88-1.015-.837-2.403-1.228-3.88-1.228-1.78 0-3.222.587-4.218 1.584-1.015.996-1.567 2.438-1.567 4.147 0 2.207.89 3.915 2.1 5.179-2.83 1.708-4.164 3.63-4.164 6.407 0 2.153.8 3.862 2.136 5.037 1.334 1.174 3.221 1.815 5.374 1.815 2.777 0 5.126-1.014 6.977-3.026l3.044 3.026zm-10.786-14.612a6.97 6.97 0 01-1.335-1.744 4.71 4.71 0 01-.605-2.314c0-1.78.997-2.936 3.115-2.936.783 0 1.46.142 1.958.551.498.41.8 1.05.8 2.047 0 1.3-.533 2.207-1.245 2.848-.712.658-1.62 1.085-2.403 1.424l-.142.053c-.054.018-.09.053-.143.071zm.712 12.05c-1.495 0-2.687-.428-3.488-1.175-.801-.748-1.228-1.798-1.228-3.062 0-1.192.373-2.153.96-2.954.57-.783 1.353-1.406 2.154-1.904l6.746 6.745c-1.264 1.424-2.884 2.35-5.144 2.35zm34.884 2.206v-20.894h7.261v-2.563h-17.264v2.563h7.262v20.894h2.74zm27.604.356l1.513-2.242c-.784-.303-1.602-.962-2.385-1.762-.801-.784-1.549-1.745-2.172-2.688-.64-.943-1.139-1.869-1.423-2.598 1.228-.57 2.224-1.37 2.918-2.51.694-1.121 1.05-2.545 1.05-4.342 0-2.617-.658-4.521-2.295-5.803-1.638-1.263-4.236-1.868-8.152-1.868h-5.748v23.457h2.758v-7.67h1.709c1.868 0 3.595-.108 5.108-.41a33.79 33.79 0 001.78 3.186c.747 1.192 1.619 2.385 2.545 3.363.907.98 1.868 1.691 2.794 1.887zm-11.569-10.607h-2.367v-10.626h2.812c2.403 0 4.378.267 5.767 1.05 1.388.801 2.153 2.136 2.153 4.272 0 2.011-.8 3.346-2.26 4.165-1.46.818-3.542 1.139-6.105 1.139zm17.264 10.251l1.887-5.464h10.358l1.886 5.464h2.848l-8.08-23.457h-3.684l-8.063 23.457h2.848zm11.373-8.027h-8.614l4.307-12.476 4.307 12.476zm15.822 8.027c3.417 0 6.407-1.246 8.525-3.328 2.118-2.065 3.382-5.001 3.382-8.418 0-3.418-1.335-6.336-3.524-8.419-2.19-2.064-5.25-3.292-8.668-3.292h-6.638v23.457h6.923zm0-2.563h-4.165v-18.331h3.88c2.58 0 4.948.96 6.656 2.616 1.709 1.655 2.777 4.022 2.777 6.816 0 2.617-.872 4.841-2.438 6.408-1.584 1.566-3.863 2.491-6.71 2.491zm30.31 2.563v-2.563h-11.373v-7.884h11.372v-2.563h-11.372v-7.884h11.372v-2.563h-14.131v23.457h14.131z"/></svg>