<svg xmlns="http://www.w3.org/2000/svg" width="149.71" height="24.46"><g fill="currentColor"><path data-name="Fill 1" d="M143.607 5.381h5.257L149.708 0l-16.973.623-.745 4.758h5.257l-2.982 18.854 6.02.227h.3z"/><path data-name="Fill 2" d="M124.005.944l-3.594 22.765 6.323.239L130.401.709z"/><g data-name="Group 13"><path data-name="Fill 3" d="M118.105 13.755l2.001-12.667-6.4.235-1.8 11.554c-.519 3.181-1.3 6.653-5.388 6.653s-3.764-3.472-3.243-6.653l1.754-11.235-6.4.235-1.878 11.878c-.487 3.148-.843 6.263 1.2 8.631a5.635 5.635 0 00.489.5l14.245.538a9.679 9.679 0 001.49-1.036c2.824-2.369 3.441-5.484 3.927-8.631"/><path data-name="Fill 5" d="M94.575 22.738l-7.836-.3-3.544-7.387h-.066l-1.143 7.212-6.325-.24 3.065-19.415 15.935-.585c1.243 1.3 1.687 3.152 1.323 5.5a8.84 8.84 0 01-2.1 4.49 7.509 7.509 0 01-4.36 2.421l5.051 8.3zM84.752 4.863l-.973 6.1h.616c1.9 0 4.468-.316 4.9-3.05a2.436 2.436 0 00-.424-2.041c-.772-.9-2.368-1.009-3.5-1.009z"/><path data-name="Fill 7" d="M69.55 21.794l-19.4-.732a11.92 11.92 0 01-1.933-9.289 14.125 14.125 0 014.541-8.211L72.7 2.829a10.4 10.4 0 012.583 8.944 16.083 16.083 0 01-5.733 10.02zM62.757 5.349c-3.689 0-7.39 3.017-7.919 6.457a6.492 6.492 0 001.285 5.345 5.729 5.729 0 004.459 1.957 8.589 8.589 0 008.079-7.3 5.479 5.479 0 00-1.258-4.406 6.08 6.08 0 00-4.646-2.053z"/><path data-name="Fill 9" d="M42.459 20.772l-21.26-.8a12.5 12.5 0 01-1.217-8.199 13.952 13.952 0 013.478-7.137l21.833-.8a10.473 10.473 0 011.753 7.937 16.07 16.07 0 01-4.587 9zM34.522 5.349c-3.689 0-7.39 3.018-7.919 6.457a6.49 6.49 0 001.285 5.344 5.728 5.728 0 004.459 1.957 8.589 8.589 0 008.08-7.3A5.48 5.48 0 0039.169 7.4a6.08 6.08 0 00-4.647-2.051z"/><path data-name="Fill 11" d="M21.464 4.711l-6.921.254-5.507 9.892L6.73 5.252 0 5.499l3.626 13.812 9.1.343z"/></g></g></svg>