<svg width="60" height="61" xmlns="http://www.w3.org/2000/svg"><path d="M59.986.811v29.993c0 16.539-13.455 29.993-29.993 29.993C13.455 60.797 0 47.343 0 30.804 0 14.266 13.455.81 29.993.81h29.993zm-17 17.792h-3.375a.373.373 0 00-.37.374v13.597c0 3.808 2.44 6.362 5.926 6.362 3.277 0 5.762-2.656 5.762-5.932v-.08a.367.367 0 00-.37-.36H47.65c-.282 0-.502.175-.54.513l-.001.014c-.087 1.218-.83 1.967-1.872 1.967-1.107 0-1.88-.849-1.88-2.208v-4.03l-.001-1.6v-.81h5.19a.369.369 0 00.368-.368v-2.76a.37.37 0 00-.369-.368h-5.19V18.97a.369.369 0 00-.369-.368zm-12.09 6.487v-1.765a.41.41 0 00-.41-.41h-3.135a.41.41 0 00-.41.41v14.964c0 .225.184.41.41.41h3.293a.41.41 0 00.41-.41V37.24l-.004.007V32.06c.112-3.212 2.348-5.794 5.56-5.651.054 0 .107-.001.161.001a.407.407 0 00.424-.405v-2.79a.407.407 0 00-.382-.407c-2.003-.136-4.186.153-5.918 2.282zm-17.238-2.175H10.22a.41.41 0 00-.39.533l5.147 14.965a.41.41 0 00.39.285h3.96a.408.408 0 00.39-.285l5.147-14.965a.41.41 0 00-.39-.533h-3.437a.41.41 0 00-.392.293L17.41 33.522h-.063L14.05 23.206a.41.41 0 00-.393-.291z" fill="currentColor"/></svg>