<svg width="138" height="96" xmlns="http://www.w3.org/2000/svg"><g fill="none"><path d="M12.686 63.997h-3.31l-2.69 24.548-2.523-24.548H.854l3.524 28.976h4.297l2.318-20.782 2.315 20.782h4.303l3.514-28.976H17.9l-2.518 24.507zm20.407 21.151l2.274-16.02 2.234 16.02h-4.508zm4.429-21.232h-4.223l-4.467 29.057h3.18l.668-4.843h5.339l.704 4.843h3.266l-4.467-29.057zm22.945 14.317l-4.01-2.894c-.953-.701-1.487-1.326-1.487-2.772v-3.64c0-1.495.7-2.2 2.19-2.2h.582c1.488 0 2.188.705 2.188 2.2v3.116h3.228v-2.998c0-3.516-1.74-5.294-5.294-5.294h-.83c-3.597 0-5.378 1.778-5.378 5.376v3.479c0 2.36.62 3.848 2.77 5.384l4.058 2.933c.951.708 1.446 1.332 1.446 2.777v4.35c0 1.495-.7 2.19-2.188 2.19h-.666c-1.492 0-2.193-.695-2.193-2.19v-3.992h-3.227v3.86c0 3.527 1.74 5.302 5.295 5.302h.913c3.595 0 5.377-1.775 5.377-5.377v-4.227c0-2.484-.66-3.849-2.774-5.383M82.692 87.8c0 1.492-.704 2.19-2.195 2.19h-2.77V79.647h2.521c1.649 0 2.444.786 2.444 2.44V87.8zm-4.965-20.824h2.684c1.486 0 2.194.708 2.194 2.194v5.093c0 1.657-.784 2.445-2.44 2.445h-2.438v-9.732zm8.236 20.62v-4.888c0-2.562-.92-3.892-2.612-4.555 1.656-.619 2.522-1.947 2.522-4.514v-4.261c0-3.601-1.78-5.381-5.376-5.381h-6.046v28.976h6.128c3.598 0 5.384-1.774 5.384-5.377zm14.273-2.448l2.27-16.02 2.238 16.02h-4.508zm.206-21.232l-4.47 29.057h3.189l.66-4.843h5.34l.704 4.843h3.266l-4.467-29.057h-4.222zm26.918 11.506c0 1.656-.79 2.44-2.444 2.44h-2.482V67.016h2.733c1.488 0 2.193.705 2.193 2.195v6.21zm.743 3.892c1.651-.665 2.566-1.949 2.566-4.56v-5.376c0-3.601-1.776-5.381-5.38-5.381h-6.16v28.976h3.305V80.807h2.443c1.74 0 2.524.784 2.524 2.52v9.646h3.31v-9.768c0-2.24-.787-3.392-2.608-3.891z"/><path d="M38.019 88.13H32.68l-.667 4.843h-3.181l4.467-29.057h4.223l4.467 29.057h-3.266l-.704-4.843zm2.045 6.954h4.156l-.13-.876-4.47-29.06-.084-.56-.014-.08-1.348-1.353h-5.517l-.103.645-4.472 29.06-.134.87 1.35 1.354h4.732l.662-4.845h2.868l.41 2.843.095.649 1.35 1.353h.65zm23.176-7.241c0 3.602-1.781 5.377-5.376 5.377h-.913c-3.556 0-5.295-1.775-5.295-5.301v-3.86h3.227v3.991c0 1.495.701 2.19 2.193 2.19h.666c1.488 0 2.188-.695 2.188-2.19V83.7c0-1.445-.495-2.069-1.446-2.777l-4.057-2.933c-2.152-1.536-2.77-3.023-2.77-5.384v-3.479c0-3.598 1.78-5.376 5.376-5.376h.83c3.554 0 5.295 1.778 5.295 5.294v2.998H59.93v-3.115c0-1.496-.7-2.2-2.188-2.2h-.583c-1.489 0-2.189.704-2.189 2.2v3.64c0 1.445.534 2.07 1.486 2.771l4.011 2.894c2.114 1.534 2.774 2.9 2.774 5.383v4.227zm2.107-2.874c0-2.554-.685-4.088-2.576-5.606-.458-.603-1.066-1.167-1.855-1.743l-3.674-2.653c-.114-.276-.167-.61-.167-1.055v-3.641c0-1.074.36-1.435 1.434-1.435h.657c.003.028.003.06.003.092V72.8l1.351 1.348h4.741v-3.75c0-1.798-.43-3.205-1.264-4.215h-.005a4.393 4.393 0 00-.549-.556l-.848-.857c-1.02-1.177-2.606-1.777-4.731-1.777h-.83c-4.015 0-6.136 2.117-6.136 6.133v3.479c0 2.522.74 4.146 2.603 5.627.467.616 1.065 1.174 1.833 1.72l3.67 2.662c.112.284.165.629.165 1.085v4.35c0 1.073-.36 1.43-1.427 1.43h-.747v-4.83l-1.35-1.35h-4.747v4.619c0 2.13.606 3.72 1.772 4.737l.906.897c1.01 1.174 2.597 1.78 4.724 1.78h.91c4.012 0 6.137-2.126 6.137-6.145v-4.219zm9.104 8.004V63.997h6.046c3.596 0 5.376 1.78 5.376 5.38v4.262c0 2.567-.866 3.895-2.522 4.514 1.691.663 2.612 1.993 2.612 4.555v4.888c0 3.603-1.786 5.377-5.384 5.377H74.45zm13.612-4.028v-4.887c0-2.135-.581-3.616-1.814-4.56 1.164-.929 1.733-2.414 1.733-4.506v-4.264c0-2.212-.644-3.847-1.89-4.871l-.728-.73a4.545 4.545 0 00-.614-.614l-.01-.005c-1.018-.84-2.442-1.269-4.243-1.269h-6.801v30.492l1.352 1.353h6.879c4.013 0 6.136-2.126 6.136-6.14zm17.802 4.028l-.704-4.843h-5.34l-.66 4.843h-3.19l4.47-29.057h4.223l4.467 29.057h-3.266zm.893-27.824l-.097-.641-1.352-1.353h-5.518l-.098.645-4.47 29.06-.14.87 1.352 1.354h4.732l.087-.659.583-4.186h2.86l.41 2.843.095.649 1.355 1.353h4.808l-.137-.876-4.47-29.06zm23.952 27.824h-3.31v-9.646c0-1.736-.784-2.52-2.523-2.52h-2.443v12.166h-3.306V63.997h6.16c3.605 0 5.38 1.78 5.38 5.38v5.377c0 2.611-.914 3.895-2.565 4.56 1.821.499 2.607 1.651 2.607 3.891v9.768zm.395-12.406c1.131-.948 1.674-2.4 1.674-4.46v-5.379c0-1.839-.45-3.277-1.311-4.303l.002.006-.01-.012a4.964 4.964 0 00-.526-.53l-.792-.788c-1.028-1.223-2.652-1.862-4.853-1.862h-6.923v30.492l1.35 1.353h4.826V82.912h1.687c.145 0 .276.006.393.016.012.126.02.26.02.399V93.73l1.348 1.353h4.823V84.559c0-1.903-.55-3.205-1.708-3.992zM17.611 92.973h-4.303L10.993 72.19 8.675 92.973H4.378L.854 63.997h3.31l2.521 24.548 2.691-24.548h3.31l2.696 24.507L17.9 63.997h3.225l-3.514 28.976zm3.514-29.734h-3.909l-.07.684-1.213 11.769-1.145-10.432-.071-.673-1.353-1.348H8.7l-.075.677-1.29 11.746-1.07-10.395-.073-.68-1.347-1.348H0l.1.85 3.596 29.642 1.351 1.353h5.657l1.04-9.32.812 7.293.077.674 1.343 1.353h5.657l.077-.668 3.517-28.983.106-.846-1.35-1.348h-.858z" fill="#000"/><path d="M36.124 80.04l.607 4.353H35.51l.614-4.352zm-3.03 5.108H37.6l-2.234-16.02-2.274 16.02zM81.927 87.8c0 1.074-.362 1.435-1.43 1.435h-.664v-7.48h1.764c.113 0 .219.002.315.01.012.1.015.205.015.32V87.8zm-1.679-8.154h-2.521V89.99h2.77c1.49 0 2.195-.7 2.195-2.19v-5.715c0-1.654-.795-2.44-2.444-2.44zm-.415-10.564h2.014v5.181c0 1.24-.441 1.68-1.681 1.68h-.333v-6.861zm2.772 5.181V69.17c0-1.486-.708-2.194-2.194-2.194h-2.684v9.732h2.439c1.655 0 2.44-.788 2.44-2.445zm20.663 5.783l.606 4.347h-1.226l.62-4.347zm-3.032 5.102h4.508l-2.238-16.02-2.27 16.02zM126.6 69.212v6.21c0 1.244-.435 1.683-1.684 1.683h-.374v-7.979h2.058v.086zm-1.433-2.195h-2.733v10.844h2.482c1.655 0 2.444-.783 2.444-2.439v-6.21c0-1.49-.705-2.195-2.193-2.195zM55.35 35.685a1.136 1.136 0 001.584 1.625 1.137 1.137 0 00.017-1.606 1.134 1.134 0 00-1.602-.02" fill="#000"/><path d="M57.766 38.462c-.941.914-2.486.836-3.465-.167-.978-1.004-1.014-2.555-.08-3.469l8.01-7.2 2.927 3.002-7.392 7.834zm-4.03-21.735s.69-.55 1.325-.504c1.323.094 1.89.836 1.89.836l2.812 2.878a1.616 1.616 0 002.139 2.19l.705.735.159.162L64.6 24.9a.689.689 0 00.96.984l2.072 2.125.14.21c-.46.55-.431 1.362.08 1.883.384.396.95.513 1.446.35l.208.313.194.284 5.961 8.743-.402.395-7.279-7.46-.238-.243-5.858-6.01.402-.4-.676-.696-.407.393-.611-.623-.156-.159-7.397-7.582.697-.68zm3.297-3.22l.702-.677 7.388 7.578.158.16.614.63-.41.393.68.698.412-.399 13.368 13.72-.403.396-8.59-6.18-.281-.202-.302-.217a1.409 1.409 0 00-2.198-1.58l-.206-.147-2.07-2.123a.692.692 0 00-.015-.947.683.683 0 00-.942-.037l-1.835-1.878-.158-.161-.706-.731c.3-.6.203-1.348-.29-1.86a1.6 1.6 0 00-1.849-.334l-2.808-2.878s-.73-.592-.787-1.912c-.027-.635.528-1.311.528-1.311zm14.117-.326c1.428-1.389 2.915-1.165 4.7.19.942.72 1.602 1.4 1.998 1.813l.091.095a16.636 16.636 0 011.76 2.044c1.313 1.818 1.495 3.314.073 4.698-.9.884-5.879 1.905-9.095 3.236l-2.98-3.057c1.41-3.183 2.552-8.137 3.453-9.019zm21.207 12.78C92.357 11.625 80.74 0 66.407 0c-14.33 0-25.945 11.625-25.945 25.96 0 14.339 11.615 25.96 25.945 25.96 14.333 0 25.95-11.621 25.95-25.96z" fill="#000"/><path d="M72.805 18.511l1.722 1.77c.482.491.52 1.262.152 1.879 1.498-.222 3.048-.473 3.783-.948 1.572-1.02.644-2.418.34-2.894-.643-1.004-1.337-1.709-1.748-2.128l-.137-.139c-.409-.426-1.095-1.137-2.086-1.807-.468-.315-1.84-1.273-2.9.271-.498.733-.79 2.313-1.051 3.83.635-.39 1.426-.339 1.925.166" fill="#000"/><path d="M71.932 14.515c1.058-1.544 2.431-.586 2.9-.27.99.67 1.676 1.38 2.085 1.806l.137.139c.41.42 1.105 1.124 1.747 2.128.305.476 1.233 1.873-.339 2.894-.735.475-2.285.726-3.783.948.369-.617.33-1.388-.152-1.88l-1.722-1.769c-.499-.505-1.29-.556-1.925-.166.262-1.517.553-3.097 1.052-3.83zm7.84 7.506c1.422-1.384 1.24-2.88-.073-4.698a16.636 16.636 0 00-1.76-2.044l-.091-.095a16.801 16.801 0 00-1.997-1.813c-1.786-1.355-3.273-1.579-4.7-.19-.902.882-2.044 5.836-3.454 9.02l2.98 3.056c3.216-1.331 8.196-2.352 9.095-3.236zM56.934 37.31a1.136 1.136 0 01-1.585-1.625 1.134 1.134 0 011.602.019 1.137 1.137 0 01-.017 1.606zm-2.713-2.484c-.934.914-.898 2.465.08 3.469.979 1.003 2.524 1.081 3.465.167l7.392-7.834-2.927-3.003-8.01 7.201zm6.371-9.679l.61.623.408-.393.676.697-.402.4 5.858 6.009.238.244 7.28 7.459.401-.395-5.96-8.743-.195-.284-.208-.313a1.401 1.401 0 01-1.446-.35 1.403 1.403 0 01-.08-1.884l-.14-.209-2.072-2.125a.689.689 0 01-.96-.984l-1.834-1.875-.159-.162-.706-.734a1.616 1.616 0 01-2.138-2.19l-2.812-2.879s-.567-.742-1.89-.836c-.634-.046-1.325.504-1.325.504l-.697.68 7.397 7.581.156.159m-3.3-8.416L60.1 19.61a1.6 1.6 0 011.849.334c.493.512.59 1.26.29 1.86l.706.73.158.162 1.835 1.878a.683.683 0 01.942.037.692.692 0 01.015.947l2.07 2.123.206.146a1.409 1.409 0 012.198 1.58l.302.218.281.202 8.59 6.18.403-.395-13.368-13.72-.413.398-.68-.698.41-.394-.613-.628-.158-.161-7.388-7.578-.702.678s-.555.676-.528 1.311c.058 1.32.787 1.912.787 1.912"/><path d="M136.127 63.349c.277 0 .432-.144.432-.353 0-.233-.167-.344-.432-.344h-.52v.697h.52zm-.829-.973h.862c.399 0 .719.21.719.597 0 .32-.21.509-.475.586l.541.752h-.386l-.487-.708h-.464v.708h-.31v-1.935zm2.42 1.006v-.01c0-.94-.728-1.715-1.701-1.715-.961 0-1.702.785-1.702 1.725v.011c0 .94.73 1.714 1.702 1.714.961 0 1.702-.785 1.702-1.725zm-3.624.011v-.01c0-1.051.85-1.936 1.923-1.936 1.083 0 1.923.874 1.923 1.924v.011c0 1.05-.85 1.935-1.923 1.935a1.918 1.918 0 01-1.923-1.924z" fill="#000"/></g></svg>